<!-- https://developers.google.com/fonts/docs/material_icons -->

<svg class="icons" xmlns="http://www.w3.org/2000/svg">
    <symbol id="edit">
        <path fill="currentColor" stroke="inherit" d="M40.5 29.05 36.95 25.5 38.4 24.05Q38.8 23.65 39.45
        23.65Q40.1 23.65 40.5 24.05L41.95 25.5Q42.35 25.9 42.35 26.55Q42.35 27.2 41.95 27.6ZM24 42V38.45L34.8
        27.65L38.35 31.2L27.55 42ZM6 31.5V28.5H21V31.5ZM6 23.25V20.25H29.5V23.25ZM6
        15V12H29.5V15Z"/>
    </symbol>
    <symbol id="info">
        <path fill="currentColor" stroke="inherit" d="M22.65 34H25.65V22H22.65ZM24 18.3Q24.7 18.3 25.175
        17.85Q25.65 17.4 25.65 16.7Q25.65 16 25.175 15.5Q24.7 15 24 15Q23.3 15 22.825 15.5Q22.35 16 22.35
        16.7Q22.35 17.4 22.825 17.85Q23.3 18.3 24 18.3ZM24 44Q19.75 44 16.1 42.475Q12.45 40.95 9.75
        38.25Q7.05 35.55 5.525 31.9Q4 28.25 4 24Q4 19.8 5.525 16.15Q7.05 12.5 9.75 9.8Q12.45
        7.1 16.1 5.55Q19.75 4 24 4Q28.2 4 31.85 5.55Q35.5 7.1 38.2 9.8Q40.9 12.5 42.45 16.15Q44
        19.8 44 24Q44 28.25 42.45 31.9Q40.9 35.55 38.2 38.25Q35.5 40.95 31.85 42.475Q28.2 44 24
        44ZM24 24Q24 24 24 24Q24 24 24 24Q24 24 24 24Q24 24 24 24Q24 24 24 24Q24 24 24 24Q24 24
        24 24Q24 24 24 24ZM24 41Q31 41 36 36Q41 31 41 24Q41 17 36 12Q31 7 24 7Q17 7 12 12Q7 17
        7 24Q7 31 12 36Q17 41 24 41Z"/>
    </symbol>
    <symbol id="delete">
        <path fill="currentColor" stroke="inherit" d="M19.75 33.35 24 29.1 28.25 33.35 30.35 31.25 26.1
        27 30.35 22.75 28.25 20.65 24 24.9 19.75 20.65 17.65 22.75 21.9 27 17.65 31.25ZM15 39H33Q33 39
        33 39Q33 39 33 39V15H15V39Q15 39 15 39Q15 39 15 39ZM10.5 11V8H17.2L19.2 6H28.8L30.8 8H37.5V11ZM15
        42Q13.8 42 12.9 41.1Q12 40.2 12 39V12H36V39Q36 40.2 35.1 41.1Q34.2 42 33 42ZM15 39H33Q33 39 33
        39Q33 39 33 39H15Q15 39 15 39Q15 39 15 39Z"/>
    </symbol>
    <symbol id="light">
        <path d="M0 0h24v24H0z" fill="none"/>
        <path fill="currentColor" stroke="inherit" d="M9 2c-1.05 0-2.05.16-3 .46 4.06 1.27 7 5.06 7 9.54 0
        4.48-2.94 8.27-7 9.54.95.3 1.95.46 3 .46 5.52 0 10-4.48 10-10S14.52 2 9 2z"/>
    </symbol>
    <symbol id="dark">
        <path fill="currentColor" stroke="inherit" d="M12,7c-2.76,0-5,2.24-5,5s2.24,5,5,5s5-2.24,
        5-5S14.76,7,12,7L12,7z M2,13l2,0c0.55,0,1-0.45,1-1s-0.45-1-1-1l-2,0 c-0.55,0-1,0.45-1,1S1.45,13,2,13z
        M20,13l2,0c0.55,0,1-0.45,1-1s-0.45-1-1-1l-2,0c-0.55,0-1,0.45-1,1S19.45,13,20,13z M11,2v2
        c0,0.55,0.45,1,1,1s1-0.45,1-1V2c0-0.55-0.45-1-1-1S11,1.45,11,2z
        M11,20v2c0,0.55,0.45,1,1,1s1-0.45,1-1v-2c0-0.55-0.45-1-1-1
        C11.45,19,11,19.45,11,20z M5.99,4.58c-0.39-0.39-1.03-0.39-1.41,0c-0.39,0.39-0.39,1.03,0,1.41l1.06,1.06
        c0.39,0.39,1.03,0.39,1.41,0s0.39-1.03,0-1.41L5.99,4.58z M18.36,16.95c-0.39-0.39-1.03-0.39-1.41,0c-0.39,
        0.39-0.39,1.03,0,1.41 l1.06,1.06c0.39,0.39,1.03,0.39,1.41,0c0.39-0.39,0.39-1.03,0-1.41L18.36,16.95z M19.42,
        5.99c0.39-0.39,0.39-1.03,0-1.41 c-0.39-0.39-1.03-0.39-1.41,0l-1.06,1.06c-0.39,0.39-0.39,1.03,0,1.41s1.03,
        0.39,1.41,0L19.42,5.99z M7.05,18.36 c0.39-0.39,0.39-1.03,0-1.41c-0.39-0.39-1.03-0.39-1.41,0l-1.06,1.06c-0.39,
        0.39-0.39,1.03,0,1.41s1.03,0.39,1.41,0L7.05,18.36z"/>
    </symbol>
    <symbol id="add">
        <path fill="currentColor" stroke="inherit" d="M22.5 38V25.5H10V22.5H22.5V10H25.5V22.5H38V25.5H25.5V38Z"/>
    </symbol>
    <symbol id="failure">
        <path fill="currentColor" stroke="inherit" d="M24 27.15Q20.65 27.15 17.925 29.025Q15.2 30.9 13.9 34H34.1Q32.85
        30.9 30.1 29.025Q27.35 27.15 24 27.15ZM14.85 23.55 17.35 21.3 19.6 23.55 21.15 21.75 18.9 19.5 21.15 17.25
        19.6 15.45 17.35 17.7 14.85 15.45 13.3 17.25 15.55 19.5 13.3 21.75ZM28.45 23.55 30.65 21.3 33.2 23.55 34.75
        21.75 32.5 19.5 34.75 17.25 33.2 15.45 30.65 17.7 28.45 15.45 26.9 17.25 29.1 19.5 26.9 21.75ZM24 44Q19.9 44
        16.25 42.425Q12.6 40.85 9.875 38.125Q7.15 35.4 5.575 31.75Q4 28.1 4 24Q4 19.85 5.575 16.2Q7.15 12.55 9.875
        9.85Q12.6 7.15 16.25 5.575Q19.9 4 24 4Q28.15 4 31.8 5.575Q35.45 7.15 38.15 9.85Q40.85 12.55 42.425 16.2Q44
        19.85 44 24Q44 28.1 42.425 31.75Q40.85 35.4 38.15 38.125Q35.45 40.85 31.8 42.425Q28.15 44 24 44ZM24 24Q24 24
        24 24Q24 24 24 24Q24 24 24 24Q24 24 24 24Q24 24 24 24Q24 24 24 24Q24 24 24 24Q24 24 24 24ZM24 41Q31.1 41 36.05
        36.025Q41 31.05 41 24Q41 16.9 36.05 11.95Q31.1 7 24 7Q16.95 7 11.975 11.95Q7 16.9 7 24Q7 31.05 11.975
        36.025Q16.95 41 24 41Z"/>
    </symbol>
    <symbol id="empty">
        <path fill="currentColor" stroke="inherit" d="M24 34.95Q27.3 34.95 30.075 33.175Q32.85 31.4 34.1
        28.35H13.9Q15.2 31.4 17.95 33.175Q20.7 34.95 24 34.95ZM15.1 21.35 17.35 19.1 19.6 21.35 21.4 19.55 17.35 15.5
        13.3 19.55ZM28.45 21.35 30.7 19.1 32.95 21.35 34.75 19.55 30.7 15.5 26.65 19.55ZM24 44Q19.9 44 16.25
        42.425Q12.6 40.85 9.875 38.125Q7.15 35.4 5.575 31.75Q4 28.1 4 24Q4 19.85 5.575 16.2Q7.15 12.55 9.875 9.85Q12.6
        7.15 16.25 5.575Q19.9 4 24 4Q28.15 4 31.8 5.575Q35.45 7.15 38.15 9.85Q40.85 12.55 42.425 16.2Q44 19.85 44 24Q44
        28.1 42.425 31.75Q40.85 35.4 38.15 38.125Q35.45 40.85 31.8 42.425Q28.15 44 24 44ZM24 24Q24 24 24 24Q24 24 24
        24Q24 24 24 24Q24 24 24 24Q24 24 24 24Q24 24 24 24Q24 24 24 24Q24 24 24 24ZM24 41Q31.1 41 36.05 36.025Q41 31.05
        41 24Q41 16.9 36.05 11.95Q31.1 7 24 7Q16.95 7 11.975 11.95Q7 16.9 7 24Q7 31.05 11.975 36.025Q16.95 41 24 41Z"/>
    </symbol>
</svg>